<svg width="14" height="15" viewBox="0 0 14 15" fill="none" xmlns="http://www.w3.org/2000/svg">
<path d="M3.45585 1.47385C3.96997 1.48524 4.44651 1.73181 4.89276 1.96455C4.9124 1.97466 4.93203 1.98477 4.95226 1.99519C5.06541 2.05506 5.15449 2.12149 5.25165 2.20551C5.38625 2.29443 5.48757 2.27521 5.63836 2.24545C5.75403 2.219 5.86899 2.19003 5.984 2.16084C6.85758 1.95556 7.80603 1.99322 8.685 2.13886C8.71257 2.14339 8.74014 2.14792 8.76855 2.15258C8.88425 2.17247 8.99691 2.19344 9.10883 2.22922C9.28922 2.2845 9.28922 2.2845 9.46675 2.23809C9.53158 2.19796 9.5926 2.15341 9.65388 2.1081C10.1184 1.76564 10.7785 1.46941 11.3647 1.4809C11.3977 1.4814 11.4308 1.48189 11.4649 1.4824C11.4893 1.48303 11.5138 1.48367 11.539 1.48432C11.6152 1.63669 11.667 1.78623 11.7082 1.95087C11.715 1.97794 11.715 1.97794 11.722 2.00556C11.8413 2.5006 11.812 3.02239 11.68 3.51118C11.6679 3.5922 11.6679 3.5922 11.7192 3.65815C11.7404 3.68071 11.7616 3.70327 11.7834 3.72651C12.266 4.28036 12.4476 4.99012 12.4482 5.71064C12.4482 5.73073 12.4482 5.75082 12.4482 5.77152C12.4467 6.79858 12.1961 7.76697 11.4604 8.51679C11.3245 8.65205 11.1821 8.76484 11.0195 8.86713C11.0002 8.88042 10.9808 8.89371 10.9609 8.9074C10.727 9.06079 10.4607 9.15451 10.1992 9.24995C10.1803 9.25683 10.1615 9.26371 10.1421 9.2708C9.74729 9.41034 9.32624 9.46038 8.914 9.52338C8.92697 9.54363 8.93993 9.56387 8.95329 9.58473C8.97039 9.61151 8.98749 9.63828 9.00511 9.66587C9.02202 9.69232 9.03894 9.71877 9.05636 9.74602C9.3384 10.1954 9.3676 10.6535 9.36624 11.1713C9.36651 11.2285 9.36684 11.2858 9.36722 11.343C9.36809 11.4922 9.36839 11.6414 9.3685 11.7906C9.36874 12.0304 9.36971 12.2703 9.37102 12.5101C9.37136 12.5936 9.37134 12.677 9.37129 12.7605C9.37147 12.8115 9.37166 12.8625 9.37186 12.9135C9.37175 12.9366 9.37164 12.9596 9.37152 12.9834C9.37232 13.0989 9.37573 13.1933 9.43353 13.2968C9.56616 13.3863 9.71596 13.4075 9.87103 13.4335C9.87103 13.4426 9.87103 13.4516 9.87103 13.4609C9.54861 13.4658 9.22618 13.4703 8.90375 13.4746C8.86675 13.475 8.86675 13.475 8.82901 13.4755C7.92594 13.4873 7.02296 13.4906 6.11981 13.4899C6.08971 13.4899 6.05961 13.4899 6.0286 13.4899C5.65967 13.4896 5.29074 13.489 4.92181 13.4882C4.92181 13.4792 4.92181 13.4702 4.92181 13.4609C4.94194 13.4582 4.96207 13.4555 4.9828 13.4528C5.19297 13.4224 5.19297 13.4224 5.35931 13.2968C5.38646 13.2154 5.38997 13.1624 5.38976 13.0775C5.38976 13.0495 5.38976 13.0216 5.38976 12.9929C5.38961 12.9628 5.38947 12.9327 5.38933 12.9017C5.38929 12.8709 5.38925 12.8401 5.38921 12.8083C5.38906 12.7097 5.38871 12.611 5.38837 12.5124C5.38823 12.4456 5.3881 12.3788 5.38799 12.312C5.38769 12.1481 5.38723 11.9842 5.38666 11.8203C5.36542 11.8241 5.34418 11.828 5.3223 11.8319C5.09682 11.8701 4.87858 11.8846 4.65009 11.8835C4.61648 11.8834 4.58287 11.8832 4.54824 11.8831C4.00387 11.876 3.51109 11.7169 3.11029 11.3349C2.91442 11.1285 2.7927 10.9053 2.68134 10.6462C2.50491 10.2358 2.25499 9.89024 1.88666 9.63276C1.84256 9.60003 1.7987 9.56698 1.75507 9.53364C1.72519 9.51111 1.72519 9.51111 1.69472 9.48813C1.63889 9.43991 1.59816 9.39414 1.55853 9.33198C1.55341 9.25678 1.55341 9.25678 1.55853 9.19526C1.73506 9.07421 1.94698 9.0903 2.15134 9.12604C2.60569 9.24798 2.96815 9.57938 3.21112 9.97285C3.44581 10.3499 3.76921 10.6105 4.20493 10.7152C4.31157 10.7351 4.4171 10.737 4.52533 10.7368C4.54904 10.7368 4.57275 10.7368 4.59718 10.7367C4.82699 10.7327 5.03081 10.6845 5.24994 10.6171C5.31368 10.5987 5.37752 10.5806 5.44134 10.5624C5.44173 10.5445 5.44212 10.5266 5.44252 10.5082C5.46098 10.1549 5.62366 9.79873 5.87884 9.55073C5.84338 9.54456 5.84338 9.54456 5.8072 9.53827C4.83933 9.36822 3.93749 9.15315 3.2265 8.42963C3.20606 8.40915 3.18561 8.38868 3.16455 8.36758C2.45808 7.61799 2.30073 6.52047 2.31732 5.5312C2.33922 4.84019 2.59434 4.11996 3.08615 3.61991C3.12599 3.56012 3.12599 3.56012 3.10217 3.47475C3.09132 3.44222 3.08046 3.40969 3.06927 3.37617C2.87964 2.79651 2.94309 2.06587 3.19916 1.51166C3.25917 1.45165 3.37519 1.47417 3.45585 1.47385Z" fill="#AAB4C7"/>
</svg>
