<svg width="12" height="13" viewBox="0 0 12 13" fill="none" xmlns="http://www.w3.org/2000/svg">
<path d="M11.412 1.088C11.0298 0.722825 10.5216 0.519043 9.99301 0.519043C9.46442 0.519043 8.95618 0.722825 8.57401 1.088L0.805507 8.8565C0.549463 9.11114 0.34644 9.41401 0.20818 9.7476C0.0699193 10.0812 -0.00083529 10.4389 7.4403e-06 10.8V11.75C7.4403e-06 11.9489 0.0790251 12.1397 0.219677 12.2803C0.36033 12.421 0.551095 12.5 0.750007 12.5H1.70001C2.06128 12.501 2.41917 12.4303 2.75294 12.292C3.08671 12.1538 3.38975 11.9507 3.64451 11.6945L11.412 3.926C11.7878 3.54937 11.9989 3.03905 11.9989 2.507C11.9989 1.97495 11.7878 1.46463 11.412 1.088ZM2.58301 10.634C2.3482 10.8673 2.031 10.9988 1.70001 11H1.50001V10.8C1.50103 10.4687 1.63252 10.1511 1.86601 9.916L7.65001 4.1335L8.36651 4.85L2.58301 10.634ZM10.35 2.8655L9.42701 3.79L8.71001 3.073L9.63501 2.15C9.73149 2.05779 9.8598 2.00633 9.99326 2.00633C10.1267 2.00633 10.255 2.05779 10.3515 2.15C10.4458 2.24528 10.4986 2.374 10.4983 2.50806C10.498 2.64211 10.4447 2.77061 10.35 2.8655Z" fill="#AAB4C7"/>
</svg>
