<svg width="12" height="6" viewBox="0 0 12 6" fill="none" xmlns="http://www.w3.org/2000/svg">
<path d="M11.6487 0.322822C11.5372 0.220479 11.4049 0.139292 11.2593 0.0839013C11.1136 0.0285101 10.9575 0 10.7999 0C10.6422 0 10.4861 0.0285101 10.3405 0.0839013C10.1949 0.139292 10.0625 0.220479 9.9511 0.322822L6.28237 3.68922C6.20736 3.75805 6.10564 3.79671 5.99958 3.79671C5.89352 3.79671 5.79179 3.75805 5.71678 3.68922L2.04886 0.322822C1.82385 0.116216 1.51864 0.000107356 1.20036 3.85114e-05C0.882079 -3.0333e-05 0.576805 0.115946 0.351694 0.322455C0.126583 0.528963 7.50488e-05 0.809087 3.33802e-08 1.1012C-7.4982e-05 1.39332 0.126289 1.6735 0.351294 1.8801L4.02002 5.24724C4.28002 5.48589 4.5887 5.6752 4.92842 5.80436C5.26814 5.93352 5.63226 6 5.99998 6C6.3677 6 6.73181 5.93352 7.07154 5.80436C7.41126 5.6752 7.71994 5.48589 7.97994 5.24724L11.6487 1.8801C11.8736 1.67357 12 1.3935 12 1.10146C12 0.809429 11.8736 0.529352 11.6487 0.322822Z" fill="#F8F8F8"/>
</svg>
