<svg width="14" height="15" viewBox="0 0 14 15" fill="none" xmlns="http://www.w3.org/2000/svg">
<path d="M5.0375 3.77695C4.9035 4.24645 4.8335 5.55945 4.8335 7.57445C4.8335 8.60945 4.853 9.36895 4.881 9.92495C4.6235 10.108 4.2455 10.299 3.789 10.299C2.957 10.299 2.3905 9.67045 2.3285 9.59895C2.249 9.50645 2.193 9.39595 2.1655 9.27695C2.1485 9.20345 2 8.50395 2 6.64945C2 4.79495 2.1485 4.09695 2.1655 4.02295C2.193 3.90245 2.25 3.78995 2.3315 3.69695C2.394 3.62545 2.964 3.00045 3.789 3.00045C4.4175 3.00045 4.894 3.35845 5.1165 3.56445C5.085 3.63345 5.058 3.70395 5.0375 3.77695Z" fill="#76787C"/>
<path d="M8.6215 3.77654C8.486 4.24854 8.417 5.83804 8.417 8.50004C8.417 9.57254 8.429 10.811 8.473 11.7695C8.2155 11.9545 7.834 12.1495 7.3725 12.1495C6.5405 12.1495 5.974 11.5215 5.912 11.45C5.837 11.3625 5.782 11.2585 5.7535 11.1465C5.725 11.036 5.5835 10.345 5.5835 7.57504C5.5835 4.80504 5.718 4.12804 5.759 3.98404C5.7895 3.87854 5.8425 3.78004 5.915 3.69754C5.977 3.62604 6.5465 3.00054 7.3725 3.00054C8.001 3.00054 8.478 3.35904 8.7005 3.56504C8.669 3.63354 8.6425 3.70454 8.6215 3.77654Z" fill="#76787C"/>
<path d="M10.956 3C10.13 3 9.5605 3.6255 9.4985 3.697C9.426 3.78 9.373 3.877 9.3425 3.983C9.2305 4.3715 9.1665 6.018 9.1665 8.5C9.1665 12.1015 9.2995 12.8625 9.34 13.01C9.37 13.117 9.4225 13.216 9.4955 13.3C9.557 13.372 10.1235 14 10.956 14C11.782 14 12.3515 13.3745 12.4135 13.303C12.4895 13.216 12.545 13.1125 12.574 13.0005C12.613 12.852 12.74 12.088 12.74 8.5005C12.74 4.9785 12.622 4.173 12.571 3.99C12.541 3.8835 12.4885 3.7845 12.416 3.7005C12.354 3.629 11.7875 3.001 10.9555 3.001L10.956 3Z" fill="#76787C"/>
</svg>
