<svg width="14" height="15" viewBox="0 0 14 15" fill="none" xmlns="http://www.w3.org/2000/svg">
<path d="M3.20833 1.25H3.5V0.9375C3.5 0.68886 3.59219 0.450403 3.75628 0.274587C3.92038 0.098772 4.14294 0 4.375 0C4.60707 0 4.82962 0.098772 4.99372 0.274587C5.15781 0.450403 5.25 0.68886 5.25 0.9375V1.25L8.75 1.25V0.9375C8.75 0.68886 8.84219 0.450403 9.00628 0.274587C9.17038 0.098772 9.39294 0 9.625 0C9.85706 0 10.0796 0.098772 10.2437 0.274587C10.4078 0.450403 10.5 0.68886 10.5 0.9375V1.25H10.7917C11.6426 1.25 12.4586 1.61216 13.0603 2.25682C13.662 2.90148 14 3.77582 14 4.6875V11.5625C14 12.4742 13.662 13.3485 13.0603 13.9932C12.4586 14.6378 11.6426 15 10.7917 15L3.20833 15C2.35743 15 1.54138 14.6378 0.939699 13.9932C0.33802 13.3485 0 12.4742 0 11.5625L0 4.6875C0 3.77582 0.33802 2.90148 0.939699 2.25682C1.54138 1.61216 2.35743 1.25 3.20833 1.25ZM3.20833 13.125L10.7917 13.125C11.1784 13.125 11.5494 12.9604 11.8229 12.6674C12.0964 12.3743 12.25 11.9769 12.25 11.5625L12.25 6.25L1.75 6.25L1.75 11.5625C1.75 11.9769 1.90365 12.3743 2.17714 12.6674C2.45063 12.9604 2.82156 13.125 3.20833 13.125Z" fill="#93959A"/>
</svg>
