<svg width="12" height="12" viewBox="0 0 12 12" fill="none" xmlns="http://www.w3.org/2000/svg">
<g clip-path="url(#clip0_105_1624)">
<path d="M6.75016 1.0575V0.75C6.75016 0.551088 6.67114 0.360322 6.53049 0.21967C6.38984 0.0790176 6.19907 0 6.00016 0C5.80125 0 5.61048 0.0790176 5.46983 0.21967C5.32918 0.360322 5.25016 0.551088 5.25016 0.75V1.0575C4.29634 1.18629 3.39321 1.56385 2.63152 2.15223C1.86983 2.74061 1.27641 3.5191 0.910882 4.40946C0.545351 5.29983 0.420588 6.27071 0.549128 7.22457C0.677667 8.17843 1.05498 9.08165 1.64316 9.8435C1.43614 10.0137 1.27063 10.2288 1.15921 10.4725C1.04779 10.7162 0.993396 10.9821 1.00016 11.25C1.00016 11.4489 1.07918 11.6397 1.21983 11.7803C1.36048 11.921 1.55125 12 1.75016 12C1.94907 12 2.13984 11.921 2.28049 11.7803C2.42114 11.6397 2.50016 11.4489 2.50016 11.25C2.49252 11.1757 2.51107 11.1011 2.55261 11.039C2.59415 10.9769 2.65606 10.9313 2.72766 10.91C3.6719 11.6171 4.81979 11.9992 5.99941 11.9992C7.17904 11.9992 8.32692 11.6171 9.27116 10.91C9.34304 10.931 9.40529 10.9765 9.44713 11.0386C9.48896 11.1007 9.50772 11.1755 9.50016 11.25C9.50016 11.4489 9.57918 11.6397 9.71983 11.7803C9.86048 11.921 10.0512 12 10.2502 12C10.4491 12 10.6398 11.921 10.7805 11.7803C10.9211 11.6397 11.0002 11.4489 11.0002 11.25C11.0069 10.9821 10.9525 10.7162 10.8411 10.4725C10.7297 10.2288 10.5642 10.0137 10.3572 9.8435C10.9453 9.08165 11.3227 8.17843 11.4512 7.22457C11.5797 6.27071 11.455 5.29983 11.0894 4.40946C10.7239 3.5191 10.1305 2.74061 9.3688 2.15223C8.60711 1.56385 7.70398 1.18629 6.75016 1.0575ZM2.00016 6.5C2.00016 5.70887 2.23476 4.93552 2.67428 4.27772C3.11381 3.61992 3.73852 3.10723 4.46943 2.80448C5.20033 2.50173 6.0046 2.42252 6.78052 2.57686C7.55645 2.7312 8.26918 3.11216 8.82859 3.67157C9.388 4.23098 9.76896 4.94371 9.9233 5.71964C10.0776 6.49556 9.99843 7.29983 9.69568 8.03073C9.39293 8.76164 8.88024 9.38635 8.22244 9.82588C7.56464 10.2654 6.79129 10.5 6.00016 10.5C4.93966 10.4988 3.92294 10.077 3.17305 9.32711C2.42316 8.57722 2.00135 7.5605 2.00016 6.5Z" fill="#595B5E"/>
<path d="M9.75 -1.17645e-05C9.55109 -1.17645e-05 9.36032 0.0790059 9.21967 0.219658C9.07902 0.36031 9 0.551076 9 0.749988C9 0.948901 9.07902 1.13967 9.21967 1.28032C9.36032 1.42097 9.55109 1.49999 9.75 1.49999C9.84955 1.49224 9.94959 1.5065 10.043 1.54176C10.1364 1.57701 10.221 1.63239 10.2906 1.70397C10.3602 1.77554 10.4132 1.86157 10.4459 1.95593C10.4785 2.0503 10.49 2.15069 10.4795 2.24999C10.4795 2.4489 10.5585 2.63967 10.6992 2.78032C10.8398 2.92097 11.0306 2.99999 11.2295 2.99999C11.4284 2.99999 11.6192 2.92097 11.7598 2.78032C11.9005 2.63967 11.9795 2.4489 11.9795 2.24999C11.9911 1.95315 11.9415 1.6571 11.8338 1.38024C11.7261 1.10338 11.5627 0.851618 11.3536 0.640603C11.1445 0.429589 10.8942 0.263829 10.6184 0.153624C10.3425 0.0434192 10.0469 -0.00887597 9.75 -1.17645e-05Z" fill="#595B5E"/>
<path d="M1.52069 2.24999C1.51019 2.15069 1.52167 2.0503 1.55432 1.95593C1.58697 1.86157 1.63999 1.77554 1.70961 1.70397C1.77923 1.63239 1.86375 1.57701 1.95718 1.54176C2.0506 1.5065 2.15064 1.49224 2.25019 1.49999C2.4491 1.49999 2.63987 1.42097 2.78052 1.28032C2.92117 1.13967 3.00019 0.948901 3.00019 0.749988C3.00019 0.551076 2.92117 0.36031 2.78052 0.219658C2.63987 0.0790059 2.4491 -1.17645e-05 2.25019 -1.17645e-05C1.95326 -0.00887597 1.65768 0.0434192 1.38181 0.153624C1.10595 0.263829 0.855694 0.429589 0.646602 0.640603C0.43751 0.851618 0.274047 1.10338 0.166372 1.38024C0.0586963 1.6571 0.00910867 1.95315 0.0206902 2.24999C0.0206902 2.4489 0.0997078 2.63967 0.24036 2.78032C0.381012 2.92097 0.571778 2.99999 0.77069 2.99999C0.969603 2.99999 1.16037 2.92097 1.30102 2.78032C1.44167 2.63967 1.52069 2.4489 1.52069 2.24999Z" fill="#595B5E"/>
<path d="M6.76514 6.1895V4.25C6.76514 4.05109 6.68612 3.86032 6.54547 3.71967C6.40481 3.57902 6.21405 3.5 6.01514 3.5C5.81622 3.5 5.62546 3.57902 5.48481 3.71967C5.34415 3.86032 5.26514 4.05109 5.26514 4.25V6.3965C5.26519 6.6617 5.37059 6.91601 5.55814 7.1035L6.45464 8C6.59609 8.13662 6.78554 8.21221 6.98219 8.21051C7.17884 8.2088 7.36694 8.12992 7.506 7.99086C7.64506 7.85181 7.72393 7.6637 7.72564 7.46705C7.72735 7.2704 7.65176 7.08095 7.51514 6.9395L6.76514 6.1895Z" fill="#595B5E"/>
</g>
<defs>
<clipPath id="clip0_105_1624">
<rect width="12" height="12" fill="white"/>
</clipPath>
</defs>
</svg>
