<svg width="106" height="42" viewBox="0 0 106 42" fill="none" xmlns="http://www.w3.org/2000/svg">
<path d="M20.0973 20.1555C20.328 20.2546 20.5092 20.4032 20.641 20.6014C20.7728 20.7996 20.8387 21.0143 20.8387 21.2456V25.6554C20.8387 26.1839 20.5916 26.5473 20.0973 26.7455L1.66169 34.5742C1.26629 34.7394 0.903833 34.7559 0.574331 34.6237C0.244829 34.4586 0.0800781 34.1448 0.0800781 33.6823V27.6869C0.0800781 27.1914 0.327205 26.8446 0.821457 26.6464L8.58123 23.7725C8.81188 23.6735 8.9272 23.5578 8.9272 23.4257C8.9272 23.2936 8.81188 23.178 8.58123 23.0789L0.821457 20.205C0.327205 20.0068 0.0800781 19.66 0.0800781 19.1645V13.1691C0.0800781 12.7727 0.244829 12.4919 0.574331 12.3268C0.903833 12.1286 1.26629 12.1121 1.66169 12.2772L20.0973 20.1555Z" fill="url(#paint0_linear_91_282)"/>
<path d="M29.6267 41.4119C29.2643 41.4119 29.0007 41.2798 28.8359 41.0156C28.7041 40.7513 28.7041 40.421 28.8359 40.0246L41.6865 1.07917C41.8513 0.583682 42.1643 0.335938 42.6256 0.335938H48.0624C48.4248 0.335938 48.672 0.468067 48.8038 0.732326C48.9685 0.996587 48.985 1.32691 48.8532 1.72331L36.0026 40.6687C35.8379 41.1642 35.4919 41.4119 34.9647 41.4119H29.6267Z" fill="url(#paint1_linear_91_282)"/>
<path d="M56.801 41.4119C56.4385 41.4119 56.1749 41.2798 56.0102 41.0156C55.8784 40.7513 55.8784 40.421 56.0102 40.0246L68.8608 1.07917C69.0255 0.583682 69.3385 0.335938 69.7998 0.335938H75.2366C75.5991 0.335938 75.8462 0.468067 75.978 0.732326C76.1428 0.996587 76.1592 1.32691 76.0274 1.72331L63.1769 40.6687C63.0121 41.1642 62.6661 41.4119 62.1389 41.4119H56.801Z" fill="url(#paint2_linear_91_282)"/>
<path d="M95.7879 38.1913C93.8109 38.1913 92.081 37.8775 90.5982 37.2498C89.1155 36.5892 87.9457 35.4991 87.089 33.9796C86.2323 32.4601 85.804 30.4782 85.804 28.0338V20.6014C85.804 20.2711 85.6392 20.1059 85.3097 20.1059H81.4546C81.191 20.1059 80.9603 20.0068 80.7626 19.8086C80.5649 19.6104 80.4661 19.3792 80.4661 19.115V13.1691C80.4661 12.9048 80.5649 12.6736 80.7626 12.4754C80.9603 12.2772 81.191 12.1781 81.4546 12.1781H85.3097C85.4745 12.1781 85.5898 12.1286 85.6557 12.0295C85.7546 11.9304 85.804 11.8148 85.804 11.6826V4.74579C85.804 4.48152 85.9028 4.2503 86.1005 4.0521C86.2982 3.85391 86.5289 3.75481 86.7925 3.75481H93.2178C93.4814 3.75481 93.712 3.85391 93.9097 4.0521C94.1074 4.2503 94.2063 4.48152 94.2063 4.74579V11.6826C94.2063 12.013 94.371 12.1781 94.7005 12.1781H103.35C103.614 12.1781 103.844 12.2772 104.042 12.4754C104.24 12.6736 104.338 12.9048 104.338 13.1691V19.115C104.338 19.3792 104.24 19.6104 104.042 19.8086C103.844 20.0068 103.614 20.1059 103.35 20.1059H94.7005C94.5687 20.1059 94.4534 20.1555 94.3546 20.2546C94.2557 20.3206 94.2063 20.4363 94.2063 20.6014V28.5292C94.2063 29.0908 94.3381 29.5202 94.6017 29.8175C94.8982 30.1148 95.2936 30.2635 95.7879 30.2635C96.3151 30.2635 96.727 30.1148 97.0235 29.8175C97.353 29.4872 97.5178 29.0578 97.5178 28.5292V26.0518C97.5178 25.7875 97.6166 25.5563 97.8143 25.3581C98.012 25.1599 98.2427 25.0608 98.5063 25.0608H104.882C105.179 25.0608 105.426 25.1599 105.624 25.3581C105.821 25.5563 105.92 25.7875 105.92 26.0518V28.0338C105.92 30.1809 105.459 32.0307 104.536 33.5832C103.647 35.1027 102.427 36.2589 100.879 37.0516C99.363 37.8114 97.6661 38.1913 95.7879 38.1913Z" fill="url(#paint3_linear_91_282)"/>
<defs>
<linearGradient id="paint0_linear_91_282" x1="0.0800781" y1="20.7728" x2="105.92" y2="20.7728" gradientUnits="userSpaceOnUse">
<stop stop-color="#4775C4"/>
<stop offset="1" stop-color="#7543E0"/>
</linearGradient>
<linearGradient id="paint1_linear_91_282" x1="0.0800781" y1="20.7728" x2="105.92" y2="20.7728" gradientUnits="userSpaceOnUse">
<stop stop-color="#4775C4"/>
<stop offset="1" stop-color="#7543E0"/>
</linearGradient>
<linearGradient id="paint2_linear_91_282" x1="0.0800781" y1="20.7728" x2="105.92" y2="20.7728" gradientUnits="userSpaceOnUse">
<stop stop-color="#4775C4"/>
<stop offset="1" stop-color="#7543E0"/>
</linearGradient>
<linearGradient id="paint3_linear_91_282" x1="0.0800781" y1="20.7728" x2="105.92" y2="20.7728" gradientUnits="userSpaceOnUse">
<stop stop-color="#4775C4"/>
<stop offset="1" stop-color="#7543E0"/>
</linearGradient>
</defs>
</svg>
