<svg width="10" height="10" viewBox="0 0 10 10" fill="none" xmlns="http://www.w3.org/2000/svg">
<path d="M3.125 5.41667C2.75416 5.41667 2.39165 5.3067 2.08331 5.10067C1.77496 4.89465 1.53464 4.60181 1.39273 4.2592C1.25081 3.91659 1.21368 3.53959 1.28603 3.17587C1.35837 2.81216 1.53695 2.47807 1.79917 2.21584C2.0614 1.95362 2.39549 1.77504 2.75921 1.7027C3.12292 1.63035 3.49992 1.66748 3.84253 1.80939C4.18514 1.95131 4.47798 2.19163 4.68401 2.49997C4.89003 2.80832 5 3.17083 5 3.54167C4.99945 4.03878 4.80173 4.51537 4.45022 4.86688C4.0987 5.2184 3.62211 5.41612 3.125 5.41667ZM3.125 2.91667C3.00139 2.91667 2.88055 2.95332 2.77777 3.022C2.67499 3.09068 2.59488 3.18829 2.54758 3.30249C2.50027 3.41669 2.48789 3.54236 2.51201 3.6636C2.53612 3.78484 2.59565 3.8962 2.68306 3.98361C2.77047 4.07102 2.88183 4.13054 3.00307 4.15466C3.12431 4.17877 3.24997 4.1664 3.36418 4.11909C3.47838 4.07179 3.57599 3.99168 3.64467 3.8889C3.71334 3.78612 3.75 3.66528 3.75 3.54167C3.75 3.37591 3.68415 3.21694 3.56694 3.09973C3.44973 2.98252 3.29076 2.91667 3.125 2.91667ZM6.25 8.54167C6.24934 7.93408 6.00768 7.35157 5.57806 6.92195C5.14843 6.49232 4.56592 6.25066 3.95833 6.25H2.29167C1.68408 6.25066 1.10157 6.49232 0.671944 6.92195C0.242317 7.35157 0.000661737 7.93408 0 8.54167L0 10H1.25V8.54167C1.25 8.2654 1.35975 8.00045 1.5551 7.8051C1.75045 7.60975 2.0154 7.5 2.29167 7.5H3.95833C4.09513 7.5 4.23058 7.52695 4.35696 7.57929C4.48334 7.63164 4.59818 7.70837 4.6949 7.8051C4.79163 7.90183 4.86836 8.01666 4.92071 8.14304C4.97306 8.26942 5 8.40487 5 8.54167V10H6.25V8.54167ZM7.29167 3.75C6.92083 3.75 6.55831 3.64003 6.24997 3.43401C5.94163 3.22798 5.70131 2.93514 5.55939 2.59253C5.41748 2.24992 5.38035 1.87292 5.45269 1.50921C5.52504 1.14549 5.70362 0.811399 5.96584 0.549176C6.22807 0.286952 6.56216 0.108376 6.92587 0.0360284C7.28959 -0.0363188 7.66659 0.000812411 8.0092 0.142727C8.35181 0.284641 8.64464 0.524965 8.85067 0.833307C9.0567 1.14165 9.16667 1.50416 9.16667 1.875C9.16611 2.37211 8.96839 2.84871 8.61688 3.20022C8.26537 3.55173 7.78878 3.74945 7.29167 3.75ZM7.29167 1.25C7.16805 1.25 7.04722 1.28666 6.94444 1.35533C6.84165 1.42401 6.76155 1.52162 6.71424 1.63582C6.66694 1.75003 6.65456 1.87569 6.67868 1.99693C6.70279 2.11817 6.76232 2.22953 6.84973 2.31694C6.93713 2.40435 7.0485 2.46388 7.16974 2.48799C7.29097 2.51211 7.41664 2.49973 7.53084 2.45243C7.64505 2.40512 7.74266 2.32501 7.81133 2.22223C7.88001 2.11945 7.91667 1.99861 7.91667 1.875C7.91667 1.70924 7.85082 1.55027 7.73361 1.43306C7.6164 1.31585 7.45743 1.25 7.29167 1.25ZM10 6.875C9.99934 6.26742 9.75768 5.68491 9.32806 5.25528C8.89843 4.82565 8.31592 4.584 7.70833 4.58333H6.25V5.83333H7.70833C7.9846 5.83333 8.24955 5.94308 8.4449 6.13843C8.64025 6.33378 8.75 6.59873 8.75 6.875V8.33333H10V6.875Z" fill="#A9AAAE"/>
</svg>
